<?xml version="1.0" encoding="iso-8859-1"?>
<!-- Generator: Adobe Illustrator 19.0.0, SVG Export Plug-In . SVG Version: 6.00 Build 0)  -->
<svg version="1.1" id="Capa_1" xmlns="http://www.w3.org/2000/svg" xmlns:xlink="http://www.w3.org/1999/xlink" x="0px" y="0px"
	 viewBox="0 0 496.485 496.485" style="enable-background:new 0 0 496.485 496.485;" xml:space="preserve">
<rect x="112.047" y="7.758" style="fill:#4FBF9F;" width="340.558" height="380.121"/>
<path style="fill:#193651;" d="M452.605,395.636H112.047c-4.655,0-7.758-3.103-7.758-7.758V7.758c0-4.655,3.103-7.758,7.758-7.758
	h340.558c4.655,0,7.758,3.103,7.758,7.758v380.121C460.362,392.533,457.259,395.636,452.605,395.636z M119.805,380.121h325.042
	V15.515H119.805V380.121z"/>
<rect x="143.077" y="38.788" style="fill:#FFFFFF;" width="278.497" height="318.061"/>
<path style="fill:#E1E6E9;" d="M402.956,438.303c0-27.927,22.497-50.424,50.424-50.424H93.429
	c-27.927,0-50.424,22.497-50.424,50.424c0,27.927,22.497,50.424,50.424,50.424H453.38
	C426.229,488.727,402.956,466.23,402.956,438.303z"/>
<g>
	<path style="fill:#193651;" d="M454.156,496.485L454.156,496.485H93.429c-31.806,0-58.182-26.376-58.182-58.182
		s26.376-58.182,58.182-58.182H453.38c4.655,0,7.758,3.103,7.758,7.758c0,4.655-3.103,7.758-7.758,7.758
		c-23.273,0-42.667,19.394-42.667,42.667s19.394,42.667,42.667,42.667l0,0l0,0c4.655,0,7.758,3.103,7.758,7.758
		C461.914,493.382,458.035,496.485,454.156,496.485z M93.429,395.636c-23.273,0-42.667,19.394-42.667,42.667
		s19.394,42.667,42.667,42.667h320.388c-11.636-10.861-18.618-25.6-18.618-42.667s6.982-31.806,18.618-42.667H93.429z"/>
	<path style="fill:#193651;" d="M406.835,427.442H116.702c-4.655,0-7.758-3.103-7.758-7.758s3.103-7.758,7.758-7.758h290.133
		c4.655,0,7.758,3.103,7.758,7.758C414.593,424.339,411.489,427.442,406.835,427.442z"/>
	<path style="fill:#193651;" d="M406.835,464.679H116.702c-4.655,0-7.758-3.103-7.758-7.758s3.103-7.758,7.758-7.758h290.133
		c4.655,0,7.758,3.103,7.758,7.758S411.489,464.679,406.835,464.679z"/>
</g>
<path style="fill:#FFFFFF;" d="M93.429,7.758c-27.927,0-50.424,22.497-50.424,50.424v380.121c0-27.927,22.497-50.424,50.424-50.424
	h18.618V7.758H93.429z"/>
<path style="fill:#193651;" d="M43.005,446.061c-4.655,0-7.758-3.103-7.758-7.758V58.182C35.247,25.6,61.623,0,93.429,0h18.618
	c4.655,0,7.758,3.103,7.758,7.758v380.121c0,4.655-3.103,7.758-7.758,7.758H93.429c-23.273,0-42.667,19.394-42.667,42.667
	C50.762,442.958,47.659,446.061,43.005,446.061z M93.429,15.515c-23.273,0-42.667,19.394-42.667,42.667v340.558
	c10.861-11.636,26.376-18.618,42.667-18.618h10.861V15.515H93.429z"/>
<rect x="70.156" y="252.897" style="fill:#193651;" width="15.515" height="15.515"/>
<rect x="70.156" y="200.921" style="fill:#193651;" width="15.515" height="15.515"/>
<rect x="70.156" y="148.945" style="fill:#193651;" width="15.515" height="15.515"/>
<path style="fill:#FFFFFF;" d="M212.896,238.933v11.636c0,38.788,31.03,69.818,69.818,69.818s69.818-31.03,69.818-69.818v-11.636
	H212.896z"/>
<g>
	<path style="fill:#193651;" d="M282.714,328.145c-42.667,0-77.576-34.909-77.576-77.576v-11.636c0-4.655,3.103-7.758,7.758-7.758
		h138.861c4.655,0,7.758,3.103,7.758,7.758v11.636C359.514,293.236,325.38,328.145,282.714,328.145z M220.653,246.691v3.879
		c0,34.133,27.927,62.061,62.061,62.061s62.061-27.927,62.061-62.061v-3.879H220.653z"/>
	<rect x="177.211" y="172.218" style="fill:#193651;" width="13.964" height="66.715"/>
</g>
<polygon style="fill:#E1E6E9;" points="351.756,238.933 351.756,180.752 212.896,180.752 212.896,238.933 282.714,259.879 "/>
<path style="fill:#193651;" d="M282.714,267.636c-0.776,0-1.552,0-2.327,0l-69.818-20.945c-3.103-0.776-5.43-3.879-5.43-7.758
	v-58.182c0-4.655,3.103-7.758,7.758-7.758h138.861c4.655,0,7.758,3.103,7.758,7.758v58.182c0,3.103-2.327,6.206-5.43,7.758
	l-69.818,20.945C284.265,267.636,283.489,267.636,282.714,267.636z M220.653,232.727l62.061,18.618l62.061-18.618v-44.994H220.653
	V232.727z"/>
<polygon style="fill:#E1E6E9;" points="282.714,110.933 167.126,162.909 282.714,214.109 398.302,162.909 "/>
<path style="fill:#193651;" d="M282.714,221.867c-0.776,0-2.327,0-3.103-0.776l-115.588-51.976
	c-3.103-1.552-4.655-3.879-4.655-6.982s1.552-6.206,4.655-6.982l115.588-51.2c2.327-0.776,4.655-0.776,6.206,0l115.588,51.2
	c3.103,1.552,4.655,3.879,4.655,6.982s-1.552,6.206-4.655,6.982l-115.588,51.976C285.041,221.867,283.489,221.867,282.714,221.867z
	 M185.744,162.909l96.97,43.442l96.194-43.442l-96.97-43.442L185.744,162.909z"/>
<ellipse style="fill:#FFFFFF;" cx="282.714" cy="162.909" rx="20.17" ry="10.085"/>
<g>
</g>
<g>
</g>
<g>
</g>
<g>
</g>
<g>
</g>
<g>
</g>
<g>
</g>
<g>
</g>
<g>
</g>
<g>
</g>
<g>
</g>
<g>
</g>
<g>
</g>
<g>
</g>
<g>
</g>
</svg>
